<svg width="33" height="33" viewBox="0 0 33 33" fill="none" xmlns="http://www.w3.org/2000/svg">
<path d="M18.614 4.58887C17.0169 4.58887 15.4852 5.22333 14.3558 6.35267C13.2265 7.48201 12.592 9.01373 12.592 10.6109C12.592 15.3242 17.19 20.9949 18.3947 22.3875C18.4594 22.4616 18.5508 22.507 18.6488 22.5138C18.7469 22.5207 18.8437 22.4885 18.918 22.4242L18.9547 22.3875C20.1434 20.9895 24.6367 15.3235 24.6367 10.6109C24.6367 9.81999 24.4809 9.03686 24.1782 8.30619C23.8756 7.57553 23.4319 6.91164 22.8727 6.35243C22.3134 5.79323 21.6495 5.34967 20.9188 5.04707C20.1881 4.74448 19.4049 4.58878 18.614 4.58887ZM18.614 13.1589C18.0295 13.1587 17.458 12.9853 16.972 12.6604C16.486 12.3356 16.1072 11.8739 15.8836 11.3338C15.6599 10.7937 15.6015 10.1994 15.7155 9.62602C15.8296 9.05267 16.1111 8.52602 16.5245 8.11266C16.9379 7.6993 17.4645 7.41778 18.0379 7.3037C18.6112 7.18962 19.2055 7.2481 19.7456 7.47175C20.2857 7.6954 20.7474 8.07418 21.0723 8.56019C21.3971 9.0462 21.5706 9.61762 21.5707 10.2022V10.2095C21.5689 10.9925 21.2566 11.7427 20.7023 12.2957C20.148 12.8486 19.397 13.159 18.614 13.1589Z" stroke="#050306" stroke-width="0.666667" stroke-linecap="round" stroke-linejoin="round"/>
<path d="M24.5208 11.9776L25.3041 11.9243L28.5514 27.9303L21.8021 29.129M21.8021 29.129L11.1921 28.0077L3.88477 29.129L5.85677 12.6976L11.8494 11.9243M21.8021 29.129L20.6621 20.1803M11.8494 11.9243L12.7088 11.967M11.8494 11.9243L11.4214 28.0323" stroke="#050306" stroke-width="0.666667" stroke-linecap="round" stroke-linejoin="round"/>
</svg>
