<svg width="23" height="21" viewBox="0 0 23 21" fill="none" xmlns="http://www.w3.org/2000/svg">
<g clip-path="url(#clip0_2136_2203)">
<path d="M16.5061 10.9826C16.5036 10.2356 16.4155 9.49086 16.2433 8.76042H18.4433C18.33 8.45573 18.1932 8.15869 18.0339 7.87153H15.9867C15.6018 6.70267 15.0049 5.60047 14.2206 4.61042C13.7194 4.41886 13.1969 4.27729 12.6622 4.18819C13.7368 5.23777 14.5479 6.48691 15.0395 7.84931H11.7456V4.09375H10.8289V7.85486H7.53501C8.02762 6.49 8.84086 5.23886 9.91835 4.18819C9.38593 4.27581 8.8655 4.41551 8.36613 4.60486C7.57868 5.59076 6.97766 6.68917 6.58779 7.85486H4.52835C4.36614 8.14727 4.22726 8.4499 4.11279 8.76042H6.33113C6.15897 9.49086 6.0709 10.2356 6.06835 10.9826C6.07004 11.7997 6.17253 12.6141 6.3739 13.4104H4.21057C4.337 13.7218 4.48814 14.0245 4.66279 14.316H6.63668C7.01081 15.3803 7.56545 16.385 8.28057 17.2937C8.79267 17.4934 9.32763 17.6406 9.87557 17.7326C8.87819 16.7436 8.11115 15.5814 7.62057 14.316H10.835V17.8382H11.7517V14.316H14.9539C14.4617 15.582 13.6925 16.7442 12.6928 17.7326C13.2433 17.6375 13.7804 17.4865 14.2939 17.2826C15.0079 16.3773 15.5625 15.3764 15.9378 14.316H17.8933C18.0672 14.0299 18.2183 13.7328 18.3456 13.4271H16.1761C16.3871 12.6262 16.4978 11.8062 16.5061 10.9826ZM10.8289 13.4104H7.32113C6.89089 11.8814 6.87202 10.2808 7.26613 8.74375H10.8289V13.4104ZM15.2533 13.4104H11.7456V8.76042H15.3083C15.4839 9.49027 15.57 10.2356 15.565 10.9826C15.57 11.8004 15.4653 12.6157 15.2533 13.4104Z" fill="black"/>
<path d="M11.2871 2.09375C9.3532 2.09375 7.46276 2.61507 5.85482 3.5918C4.24687 4.56852 2.99363 5.95678 2.25357 7.58101C1.51351 9.20524 1.31988 10.9925 1.69716 12.7168C2.07444 14.4411 3.00568 16.0249 4.37313 17.268C5.74057 18.5112 7.48281 19.3578 9.37951 19.7007C11.2762 20.0437 13.2422 19.8677 15.0289 19.1949C16.8155 18.5221 18.3426 17.3828 19.417 15.921C20.4914 14.4593 21.0648 12.7407 21.0648 10.9826C21.0648 8.62516 20.0347 6.36424 18.201 4.69725C16.3673 3.03026 13.8803 2.09375 11.2871 2.09375ZM11.2871 18.7604C9.59493 18.7604 7.9408 18.3043 6.53385 17.4496C5.12689 16.595 4.03031 15.3803 3.38276 13.9591C2.73521 12.5379 2.56578 10.974 2.8959 9.46527C3.22601 7.95653 4.04085 6.57066 5.23737 5.48292C6.43388 4.39518 7.95834 3.65442 9.61795 3.35431C11.2776 3.0542 12.9978 3.20823 14.5611 3.79691C16.1245 4.38559 17.4606 5.38249 18.4007 6.66154C19.3408 7.94059 19.8426 9.44434 19.8426 10.9826C19.8426 13.0454 18.9412 15.0237 17.3368 16.4824C15.7323 17.941 13.5561 18.7604 11.2871 18.7604Z" fill="black"/>
</g>
<defs>
<clipPath id="clip0_2136_2203">
<rect width="22" height="20" fill="white" transform="translate(0.287109 0.982422)"/>
</clipPath>
</defs>
</svg>
