<svg width="32" height="32" viewBox="0 0 32 32" fill="none" xmlns="http://www.w3.org/2000/svg">
<path d="M25.9134 5.41992H6.08675C5.2027 5.41992 4.35485 5.77111 3.72973 6.39623C3.10461 7.02135 2.75342 7.8692 2.75342 8.75326V23.2466C2.75342 24.1306 3.10461 24.9785 3.72973 25.6036C4.35485 26.2287 5.2027 26.5799 6.08675 26.5799H25.9134C26.7975 26.5799 27.6453 26.2287 28.2704 25.6036C28.8956 24.9785 29.2468 24.1306 29.2468 23.2466V8.75326C29.2468 7.8692 28.8956 7.02135 28.2704 6.39623C27.6453 5.77111 26.7975 5.41992 25.9134 5.41992ZM6.08675 6.75326H25.9134C26.4181 6.7518 26.9044 6.9426 27.2734 7.28687C27.6425 7.63113 27.8665 8.10302 27.9001 8.60659C24.6068 10.3666 21.3001 12.1133 17.9934 13.8733C17.5461 14.1536 17.0728 14.3902 16.5801 14.5799C16.1933 14.6563 15.7947 14.6494 15.4108 14.5597C15.0268 14.47 14.6664 14.2997 14.3534 14.0599C12.4601 13.0599 10.5668 12.0466 8.68675 11.0466C7.16675 10.2466 5.62008 9.43326 4.10008 8.61992C4.13101 8.11421 4.35385 7.63939 4.72309 7.29245C5.09233 6.94552 5.5801 6.75265 6.08675 6.75326ZM27.9134 23.2466C27.9134 23.777 27.7027 24.2857 27.3276 24.6608C26.9526 25.0359 26.4439 25.2466 25.9134 25.2466H6.08675C5.55632 25.2466 5.04761 25.0359 4.67254 24.6608C4.29747 24.2857 4.08675 23.777 4.08675 23.2466V10.1333C7.23342 11.7866 10.3668 13.4666 13.5134 15.1333C14.0756 15.4779 14.6808 15.7469 15.3134 15.9333C16.2393 16.0838 17.1882 15.8893 17.9801 15.3866C19.9134 14.3733 21.8334 13.3466 23.7668 12.3333C25.1534 11.5866 26.5268 10.8666 27.9134 10.1333V23.2466Z" fill="#100F11"/>
</svg>
