<svg width="27" height="25" viewBox="0 0 27 25" fill="none" xmlns="http://www.w3.org/2000/svg">
<path d="M13.5 13.1402C13.0982 13.1416 12.708 13.2602 12.3895 13.4779C12.0709 13.6956 11.8416 14.0002 11.7368 14.345C11.632 14.6898 11.6575 15.0556 11.8094 15.3863C11.9613 15.7169 12.2311 15.9941 12.5775 16.1752V18.5002H14.445V16.1752C14.719 16.0311 14.9464 15.8264 15.1051 15.5811C15.2638 15.3358 15.3483 15.0581 15.3506 14.7752C15.3506 14.5596 15.3026 14.3462 15.2095 14.1472C15.1164 13.9481 14.9799 13.7675 14.8079 13.6155C14.6359 13.4635 14.4318 13.3433 14.2073 13.2617C13.9828 13.1802 13.7425 13.1388 13.5 13.1402Z" stroke="black" stroke-linecap="round" stroke-linejoin="round"/>
<path d="M20.4132 9.38477H6.58137C5.23932 9.38477 4.15137 10.3518 4.15137 11.5448V20.0898C4.15137 21.2827 5.23932 22.2498 6.58137 22.2498H20.4132C21.7553 22.2498 22.8432 21.2827 22.8432 20.0898V11.5448C22.8432 10.3518 21.7553 9.38477 20.4132 9.38477Z" stroke="black" stroke-linecap="round" stroke-linejoin="round"/>
<path d="M7.50928 9.385V8.08C7.50928 6.6664 8.14102 5.31069 9.26554 4.31112C10.3901 3.31155 11.9152 2.75 13.5055 2.75C15.0958 2.75 16.621 3.31155 17.7455 4.31112C18.87 5.31069 19.5018 6.6664 19.5018 8.08V9.385" stroke="black" stroke-linecap="round" stroke-linejoin="round"/>
</svg>
