<svg width="27" height="33" viewBox="0 0 27 33" fill="none" xmlns="http://www.w3.org/2000/svg">
<path d="M22.5807 20.8304L17.9118 18.1807C17.7308 18.0814 17.5332 18.0408 17.3367 18.0627C17.1403 18.0846 16.9512 18.1683 16.7866 18.3061C16.7735 18.3167 16.7609 18.3284 16.7491 18.3412L14.297 20.9921C14.2424 21.0343 14.1805 21.0588 14.1166 21.0634C14.0528 21.068 13.9891 21.0526 13.9311 21.0185C12.3254 20.0354 10.6633 17.9437 9.88811 15.9311C9.86069 15.8581 9.84796 15.7777 9.85107 15.6969C9.85417 15.6162 9.87302 15.5377 9.90591 15.4684L12.0021 12.3072C12.012 12.2921 12.0209 12.2758 12.0297 12.2595C12.1381 12.0511 12.2039 11.8118 12.2211 11.5631C12.2384 11.3144 12.2066 11.0642 12.1286 10.835L10.0354 4.92383C9.93438 4.62444 9.75947 4.37471 9.53697 4.21214C9.31447 4.04957 9.05638 3.98293 8.80147 4.02223C7.5572 4.23029 6.41519 5.00567 5.58875 6.20355C4.76231 7.40143 4.30796 8.93988 4.31056 10.5316C4.31056 20.2122 10.5199 28.0871 18.1531 28.0871C19.4081 28.0904 20.6212 27.5141 21.5657 26.466C22.5103 25.4179 23.1217 23.9696 23.2857 22.3916C23.3165 22.0697 23.2645 21.7439 23.1374 21.4626C23.0104 21.1813 22.8152 20.9596 22.5807 20.8304ZM22.5036 22.2662C22.364 23.6026 21.8453 24.8287 21.0447 25.7154C20.244 26.6021 19.2161 27.0886 18.1531 27.0839C10.957 27.0839 5.10156 19.6579 5.10156 10.5316C5.09788 9.18348 5.48147 7.87985 6.18061 6.8644C6.87976 5.84894 7.84659 5.19119 8.90035 5.01412C8.91615 5.01287 8.932 5.01287 8.94781 5.01412C9.02583 5.01496 9.10192 5.04506 9.16649 5.10062C9.23106 5.15617 9.28123 5.23472 9.31068 5.32635L11.3979 11.2375C11.4223 11.3098 11.4329 11.3883 11.429 11.4667C11.425 11.5451 11.4066 11.6212 11.3752 11.689L9.28003 14.849C9.27014 14.8653 9.26025 14.8803 9.25135 14.8979C9.13973 15.1143 9.07399 15.3637 9.06049 15.6217C9.04698 15.8798 9.08615 16.138 9.17423 16.3713C10.0335 18.6021 11.8053 20.8329 13.5841 21.9226C13.7693 22.0336 13.974 22.0818 14.1783 22.0627C14.3826 22.0436 14.5795 21.9577 14.7498 21.8135L14.7864 21.7784L17.2415 19.13C17.294 19.0893 17.3534 19.065 17.4147 19.0591C17.4761 19.0532 17.5377 19.0659 17.5944 19.0961L22.2623 21.7495C22.3411 21.7911 22.4072 21.8639 22.4507 21.957C22.4941 22.0501 22.5127 22.1586 22.5036 22.2662Z" fill="#100F11"/>
</svg>
