<svg width="33" height="33" viewBox="0 0 33 33" fill="none" xmlns="http://www.w3.org/2000/svg">
<path d="M28.7198 27.7322C26.6548 24.1622 23.3448 21.7247 19.5098 20.8459C21.3321 20.0993 22.8387 18.7431 23.772 17.009C24.7054 15.2749 25.0076 13.2705 24.6272 11.3383C24.2467 9.40605 23.2071 7.66588 21.686 6.41508C20.1649 5.16428 18.2566 4.48047 16.2873 4.48047C14.318 4.48047 12.4097 5.16428 10.8886 6.41508C9.36752 7.66588 8.32793 9.40605 7.94745 11.3383C7.56698 13.2705 7.86924 15.2749 8.8026 17.009C9.73596 18.7431 11.2425 20.0993 13.0648 20.8459C9.23481 21.7209 5.91981 24.1622 3.85481 27.7322C3.79503 27.8465 3.78172 27.9794 3.81765 28.1033C3.85358 28.2271 3.93598 28.3323 4.04763 28.3968C4.15928 28.4614 4.29155 28.4803 4.41681 28.4496C4.54207 28.4189 4.65063 28.341 4.71981 28.2322C7.16231 24.0059 11.4898 21.4822 16.2873 21.4822C21.0848 21.4822 25.4123 24.0059 27.8548 28.2322C27.8986 28.3081 27.9617 28.3712 28.0376 28.4151C28.1135 28.4589 28.1996 28.4821 28.2873 28.4822C28.3752 28.4824 28.4615 28.4591 28.5373 28.4147C28.6519 28.3483 28.7355 28.2391 28.7697 28.1112C28.8039 27.9832 28.786 27.8469 28.7198 27.7322ZM8.78731 12.9822C8.78731 11.4988 9.22718 10.0488 10.0513 8.8154C10.8754 7.58204 12.0467 6.62074 13.4172 6.05308C14.7876 5.48543 16.2956 5.3369 17.7505 5.62629C19.2053 5.91568 20.5417 6.62999 21.5906 7.67888C22.6395 8.72777 23.3538 10.0641 23.6432 11.519C23.9326 12.9739 23.7841 14.4819 23.2164 15.8523C22.6487 17.2228 21.6875 18.3941 20.4541 19.2182C19.2207 20.0423 17.7707 20.4822 16.2873 20.4822C14.2989 20.4799 12.3926 19.6889 10.9866 18.2829C9.58055 16.8769 8.78963 14.9706 8.78731 12.9822Z" fill="#050306"/>
</svg>
